<?xml version="1.0" encoding="utf-8"?>
<!-- Generator: Adobe Illustrator 27.5.0, SVG Export Plug-In . SVG Version: 6.00 Build 0)  -->
<svg version="1.1" xmlns="http://www.w3.org/2000/svg" xmlns:xlink="http://www.w3.org/1999/xlink" x="0px" y="0px"
	 viewBox="0 0 500 500" style="enable-background:new 0 0 500 500;" xml:space="preserve">
<g id="BACKGROUND">
	<rect style="fill:#FFFFFF;" width="500" height="500"/>
</g>
<g id="OBJECTS">
	<g>
		<g>
			<g>
				<line style="fill:none;stroke:#DEC5AB;stroke-miterlimit:10;" x1="244.982" y1="52.309" x2="244.982" y2="60.309"/>
				<line style="fill:none;stroke:#DEC5AB;stroke-miterlimit:10;" x1="248.982" y1="56.309" x2="240.982" y2="56.309"/>
			</g>
			<g>
				<line style="fill:none;stroke:#DEC5AB;stroke-miterlimit:10;" x1="40.45" y1="120.972" x2="40.45" y2="128.972"/>
				<line style="fill:none;stroke:#DEC5AB;stroke-miterlimit:10;" x1="44.45" y1="124.972" x2="36.45" y2="124.972"/>
			</g>
			<g>
				<line style="fill:none;stroke:#DEC5AB;stroke-miterlimit:10;" x1="261.65" y1="331.614" x2="261.65" y2="339.614"/>
				<line style="fill:none;stroke:#DEC5AB;stroke-miterlimit:10;" x1="265.65" y1="335.614" x2="257.65" y2="335.614"/>
			</g>
			<g>
				<line style="fill:none;stroke:#DEC5AB;stroke-miterlimit:10;" x1="420.678" y1="66.537" x2="420.678" y2="74.537"/>
				<line style="fill:none;stroke:#DEC5AB;stroke-miterlimit:10;" x1="424.678" y1="70.537" x2="416.678" y2="70.537"/>
			</g>
			<g>
				<line style="fill:none;stroke:#DEC5AB;stroke-miterlimit:10;" x1="390.295" y1="377.923" x2="390.295" y2="385.923"/>
				<line style="fill:none;stroke:#DEC5AB;stroke-miterlimit:10;" x1="394.295" y1="381.923" x2="386.295" y2="381.923"/>
			</g>
			<circle style="fill:none;stroke:#DEC5AB;stroke-miterlimit:10;" cx="269.823" cy="79.114" r="3"/>
			<circle style="fill:none;stroke:#DEC5AB;stroke-miterlimit:10;" cx="445.333" cy="86.124" r="3"/>
			<circle style="fill:none;stroke:#DEC5AB;stroke-miterlimit:10;" cx="31.698" cy="358.964" r="3"/>
			<circle style="fill:none;stroke:#DEC5AB;stroke-miterlimit:10;" cx="410.278" cy="355.459" r="3"/>
		</g>
		<g>
			<g>
				<g>
					<defs>
						<rect id="SVGID_1_" x="33.043" y="68.327" width="294.22" height="242.37"/>
					</defs>
					<clipPath id="SVGID_00000109028150022135129840000015689010868800124844_">
						<use xlink:href="#SVGID_1_"  style="overflow:visible;"/>
					</clipPath>
					<g style="clip-path:url(#SVGID_00000109028150022135129840000015689010868800124844_);">
						<g>
							
								<ellipse transform="matrix(0.7071 -0.7071 0.7071 0.7071 -94.2966 188.3026)" style="fill:#F8E4CF;" cx="180.153" cy="207.977" rx="138.279" ry="138.279"/>
							<g>
								
									<ellipse style="fill:none;stroke:#DEC5AB;stroke-width:0.5;stroke-miterlimit:10;" cx="180.153" cy="207.977" rx="105.679" ry="138.279"/>
								
									<ellipse style="fill:none;stroke:#DEC5AB;stroke-width:0.5;stroke-miterlimit:10;" cx="180.153" cy="207.977" rx="33.364" ry="138.279"/>
								
									<ellipse style="fill:none;stroke:#DEC5AB;stroke-width:0.5;stroke-miterlimit:10;" cx="180.153" cy="207.977" rx="138.279" ry="105.679"/>
								
									<ellipse style="fill:none;stroke:#DEC5AB;stroke-width:0.5;stroke-miterlimit:10;" cx="180.153" cy="207.977" rx="138.279" ry="33.364"/>
							</g>
						</g>
						<g>
							<path style="fill:#DEC5AB;" d="M233.968,110.712c0,4.623-8.371,14.635-8.371,14.635s-8.371-10.012-8.371-14.635
								s3.748-8.371,8.371-8.371S233.968,106.089,233.968,110.712z"/>
							<path style="fill:#F8E4CF;" d="M229.318,110.712c0,2.055-1.666,3.72-3.72,3.72c-2.055,0-3.72-1.666-3.72-3.72
								c0-2.055,1.666-3.72,3.72-3.72C227.652,106.992,229.318,108.657,229.318,110.712z"/>
						</g>
						<g>
							<path style="fill:#DEC5AB;" d="M103.083,211.066c0,4.623-8.371,14.635-8.371,14.635s-8.371-10.012-8.371-14.635
								s3.748-8.371,8.371-8.371C99.336,202.695,103.083,206.443,103.083,211.066z"/>
							<path style="fill:#F8E4CF;" d="M98.433,211.066c0,2.055-1.666,3.72-3.72,3.72c-2.055,0-3.72-1.666-3.72-3.72
								s1.666-3.72,3.72-3.72C96.767,207.346,98.433,209.011,98.433,211.066z"/>
						</g>
					</g>
				</g>
				<g>
					<g>
						<polygon style="fill:#BF9A77;" points="164.322,168.538 159.011,170.865 159.011,185.393 244.506,185.393 249.816,183.066 
							249.816,168.538 						"/>
						<polygon style="fill:#BF9A77;" points="159.011,182.792 153.701,185.12 153.701,196.174 249.816,196.174 255.127,193.847 
							255.127,182.792 						"/>
						<polygon style="fill:#BF9A77;" points="169.101,193.847 163.791,196.174 163.791,266.016 239.727,266.016 245.037,263.689 
							245.037,193.847 						"/>
						<rect x="169.101" y="193.847" style="fill:#DEC5AB;" width="75.936" height="69.842"/>
						<rect x="159.012" y="182.792" style="fill:#F8E4CF;" width="96.115" height="11.054"/>
						<rect x="164.322" y="168.538" style="fill:#DEC5AB;" width="85.494" height="14.528"/>
						<g>
							<rect x="177.508" y="202.213" style="fill:#BF9A77;" width="9.889" height="10.834"/>
							<rect x="226.742" y="202.213" style="fill:#BF9A77;" width="9.889" height="10.834"/>
						</g>
					</g>
					<g>
						<g>
							<polygon style="fill:#CA791E;" points="290.945,184.525 240.107,179.029 240.107,129.29 290.945,134.786 							"/>
							<polygon style="fill:#B75F16;" points="177.727,162.633 240.107,129.29 240.107,179.029 177.727,212.372 							"/>
							<polygon style="fill:#B75F16;" points="286,179.152 245.053,174.725 245.053,134.664 286,139.09 							"/>
							<polygon style="fill:#CA791E;" points="177.727,168.006 240.107,134.664 240.107,173.939 177.727,207.281 							"/>
							<g>
								
									<line style="fill:none;stroke:#B75F16;stroke-width:2;stroke-miterlimit:10;" x1="182.348" y1="165.122" x2="182.348" y2="206.6"/>
								
									<line style="fill:none;stroke:#B75F16;stroke-width:2;stroke-miterlimit:10;" x1="188.252" y1="161.665" x2="188.252" y2="203.143"/>
								
									<line style="fill:none;stroke:#B75F16;stroke-width:2;stroke-miterlimit:10;" x1="194.157" y1="158.207" x2="194.157" y2="199.685"/>
								
									<line style="fill:none;stroke:#B75F16;stroke-width:2;stroke-miterlimit:10;" x1="200.061" y1="154.75" x2="200.061" y2="196.228"/>
								
									<line style="fill:none;stroke:#B75F16;stroke-width:2;stroke-miterlimit:10;" x1="205.965" y1="151.801" x2="205.965" y2="193.278"/>
								
									<line style="fill:none;stroke:#B75F16;stroke-width:2;stroke-miterlimit:10;" x1="211.869" y1="148.451" x2="211.869" y2="189.928"/>
								
									<line style="fill:none;stroke:#B75F16;stroke-width:2;stroke-miterlimit:10;" x1="217.774" y1="145.261" x2="217.774" y2="186.739"/>
								
									<line style="fill:none;stroke:#B75F16;stroke-width:2;stroke-miterlimit:10;" x1="223.678" y1="142.081" x2="223.678" y2="183.559"/>
								
									<line style="fill:none;stroke:#B75F16;stroke-width:2;stroke-miterlimit:10;" x1="229.582" y1="138.132" x2="229.582" y2="179.61"/>
								
									<line style="fill:none;stroke:#B75F16;stroke-width:2;stroke-miterlimit:10;" x1="235.487" y1="135.379" x2="235.487" y2="176.857"/>
							</g>
							<polygon style="fill:#A84E11;" points="290.945,184.525 235.487,212.372 177.727,212.372 240.107,179.029 							"/>
						</g>
						<g>
							<polygon style="fill:#EA9633;" points="346.738,150.02 300.725,145.045 300.725,100.026 346.738,105.001 							"/>
							<polygon style="fill:#CA791E;" points="244.265,130.205 300.725,100.026 300.725,145.045 244.265,175.223 							"/>
							<polygon style="fill:#CA791E;" points="342.262,145.156 305.201,141.15 305.201,104.89 342.262,108.896 							"/>
							<polygon style="fill:#EA9633;" points="244.265,135.068 300.725,104.89 300.725,140.438 244.265,170.616 							"/>
							<g>
								
									<line style="fill:none;stroke:#CA791E;stroke-width:2;stroke-miterlimit:10;" x1="248.447" y1="132.535" x2="248.447" y2="169.531"/>
								
									<line style="fill:none;stroke:#CA791E;stroke-width:2;stroke-miterlimit:10;" x1="253.791" y1="129.451" x2="253.791" y2="166.447"/>
								
									<line style="fill:none;stroke:#CA791E;stroke-width:2;stroke-miterlimit:10;" x1="259.135" y1="126.367" x2="259.135" y2="163.364"/>
								
									<line style="fill:none;stroke:#CA791E;stroke-width:2;stroke-miterlimit:10;" x1="264.479" y1="123.283" x2="264.479" y2="160.28"/>
								
									<line style="fill:none;stroke:#CA791E;stroke-width:2;stroke-miterlimit:10;" x1="269.823" y1="120.653" x2="269.823" y2="157.649"/>
								
									<line style="fill:none;stroke:#CA791E;stroke-width:2;stroke-miterlimit:10;" x1="275.167" y1="117.665" x2="275.167" y2="154.661"/>
								
									<line style="fill:none;stroke:#CA791E;stroke-width:2;stroke-miterlimit:10;" x1="280.511" y1="114.82" x2="280.511" y2="151.816"/>
								
									<line style="fill:none;stroke:#CA791E;stroke-width:2;stroke-miterlimit:10;" x1="285.855" y1="111.984" x2="285.855" y2="148.98"/>
								
									<line style="fill:none;stroke:#CA791E;stroke-width:2;stroke-miterlimit:10;" x1="291.199" y1="108.461" x2="291.199" y2="145.457"/>
								
									<line style="fill:none;stroke:#CA791E;stroke-width:2;stroke-miterlimit:10;" x1="296.543" y1="106.005" x2="296.543" y2="143.002"/>
							</g>
							<polygon style="fill:#B75F16;" points="346.738,150.02 296.543,175.223 244.265,175.223 300.725,145.045 							"/>
						</g>
						<g>
							<polygon style="fill:#CA791E;" points="404.568,116.931 353.73,111.435 353.73,61.696 404.568,67.192 							"/>
							<polygon style="fill:#B75F16;" points="291.35,95.038 353.73,61.696 353.73,111.435 291.35,144.777 							"/>
							<polygon style="fill:#B75F16;" points="399.622,111.557 358.675,107.131 358.675,67.069 399.622,71.496 							"/>
							<polygon style="fill:#CA791E;" points="291.35,100.411 353.73,67.069 353.73,106.344 291.35,139.687 							"/>
							<g>
								
									<line style="fill:none;stroke:#B75F16;stroke-width:2;stroke-miterlimit:10;" x1="295.971" y1="97.527" x2="295.971" y2="139.005"/>
								
									<line style="fill:none;stroke:#B75F16;stroke-width:2;stroke-miterlimit:10;" x1="301.875" y1="94.07" x2="301.875" y2="135.548"/>
								
									<line style="fill:none;stroke:#B75F16;stroke-width:2;stroke-miterlimit:10;" x1="307.779" y1="90.613" x2="307.779" y2="132.091"/>
								
									<line style="fill:none;stroke:#B75F16;stroke-width:2;stroke-miterlimit:10;" x1="313.684" y1="87.155" x2="313.684" y2="128.633"/>
								
									<line style="fill:none;stroke:#B75F16;stroke-width:2;stroke-miterlimit:10;" x1="319.588" y1="84.206" x2="319.588" y2="125.684"/>
								
									<line style="fill:none;stroke:#B75F16;stroke-width:2;stroke-miterlimit:10;" x1="325.492" y1="80.856" x2="325.492" y2="122.334"/>
								
									<line style="fill:none;stroke:#B75F16;stroke-width:2;stroke-miterlimit:10;" x1="331.396" y1="77.667" x2="331.396" y2="119.144"/>
								
									<line style="fill:none;stroke:#B75F16;stroke-width:2;stroke-miterlimit:10;" x1="337.301" y1="74.487" x2="337.301" y2="115.965"/>
								
									<line style="fill:none;stroke:#B75F16;stroke-width:2;stroke-miterlimit:10;" x1="343.205" y1="70.537" x2="343.205" y2="112.015"/>
								
									<line style="fill:none;stroke:#B75F16;stroke-width:2;stroke-miterlimit:10;" x1="349.109" y1="67.785" x2="349.109" y2="109.262"/>
							</g>
							<polygon style="fill:#A84E11;" points="404.568,116.931 349.109,144.777 291.35,144.777 353.73,111.435 							"/>
						</g>
						<g>
							<polygon style="fill:#EA9633;" points="279.586,233.898 231.648,228.716 231.648,181.814 279.586,186.997 							"/>
							<polygon style="fill:#CA791E;" points="172.827,213.255 231.648,181.814 231.648,228.716 172.827,260.156 							"/>
							<polygon style="fill:#CA791E;" points="274.922,228.831 236.311,224.657 236.311,186.881 274.922,191.055 							"/>
							<polygon style="fill:#EA9633;" points="172.827,218.321 231.648,186.881 231.648,223.915 172.827,255.356 							"/>
							<g>
								
									<line style="fill:none;stroke:#CA791E;stroke-width:2;stroke-miterlimit:10;" x1="177.184" y1="215.682" x2="177.184" y2="254.226"/>
								
									<line style="fill:none;stroke:#CA791E;stroke-width:2;stroke-miterlimit:10;" x1="182.751" y1="212.469" x2="182.751" y2="251.013"/>
								
									<line style="fill:none;stroke:#CA791E;stroke-width:2;stroke-miterlimit:10;" x1="188.319" y1="209.257" x2="188.319" y2="247.8"/>
								
									<line style="fill:none;stroke:#CA791E;stroke-width:2;stroke-miterlimit:10;" x1="193.886" y1="206.044" x2="193.886" y2="244.587"/>
								
									<line style="fill:none;stroke:#CA791E;stroke-width:2;stroke-miterlimit:10;" x1="199.453" y1="203.303" x2="199.453" y2="241.847"/>
								
									<line style="fill:none;stroke:#CA791E;stroke-width:2;stroke-miterlimit:10;" x1="205.021" y1="200.19" x2="205.021" y2="238.734"/>
								
									<line style="fill:none;stroke:#CA791E;stroke-width:2;stroke-miterlimit:10;" x1="210.588" y1="197.226" x2="210.588" y2="235.77"/>
								
									<line style="fill:none;stroke:#CA791E;stroke-width:2;stroke-miterlimit:10;" x1="216.156" y1="194.271" x2="216.156" y2="232.815"/>
								
									<line style="fill:none;stroke:#CA791E;stroke-width:2;stroke-miterlimit:10;" x1="221.723" y1="190.601" x2="221.723" y2="229.145"/>
								
									<line style="fill:none;stroke:#CA791E;stroke-width:2;stroke-miterlimit:10;" x1="227.291" y1="188.043" x2="227.291" y2="226.587"/>
							</g>
							<polygon style="fill:#B75F16;" points="279.586,233.898 227.291,260.156 172.827,260.156 231.648,228.716 							"/>
						</g>
						<g>
							<polygon style="fill:#CA791E;" points="352.534,196.355 301.696,190.859 301.696,141.12 352.534,146.617 							"/>
							<polygon style="fill:#B75F16;" points="239.316,174.463 301.696,141.12 301.696,190.859 239.316,224.202 							"/>
							<polygon style="fill:#B75F16;" points="347.589,190.982 306.642,186.555 306.642,146.494 347.589,150.921 							"/>
							<polygon style="fill:#CA791E;" points="239.316,179.836 301.696,146.494 301.696,185.769 239.316,219.111 							"/>
							<g>
								
									<line style="fill:none;stroke:#B75F16;stroke-width:2;stroke-miterlimit:10;" x1="243.937" y1="176.952" x2="243.937" y2="218.43"/>
								
									<line style="fill:none;stroke:#B75F16;stroke-width:2;stroke-miterlimit:10;" x1="249.841" y1="173.495" x2="249.841" y2="214.973"/>
								
									<line style="fill:none;stroke:#B75F16;stroke-width:2;stroke-miterlimit:10;" x1="255.746" y1="170.038" x2="255.746" y2="211.515"/>
								
									<line style="fill:none;stroke:#B75F16;stroke-width:2;stroke-miterlimit:10;" x1="261.65" y1="166.58" x2="261.65" y2="208.058"/>
								
									<line style="fill:none;stroke:#B75F16;stroke-width:2;stroke-miterlimit:10;" x1="267.554" y1="163.631" x2="267.554" y2="205.109"/>
								
									<line style="fill:none;stroke:#B75F16;stroke-width:2;stroke-miterlimit:10;" x1="273.458" y1="160.281" x2="273.458" y2="201.759"/>
								
									<line style="fill:none;stroke:#B75F16;stroke-width:2;stroke-miterlimit:10;" x1="279.363" y1="157.091" x2="279.363" y2="198.569"/>
								
									<line style="fill:none;stroke:#B75F16;stroke-width:2;stroke-miterlimit:10;" x1="285.267" y1="153.912" x2="285.267" y2="195.39"/>
								
									<line style="fill:none;stroke:#B75F16;stroke-width:2;stroke-miterlimit:10;" x1="291.171" y1="149.962" x2="291.171" y2="191.44"/>
								
									<line style="fill:none;stroke:#B75F16;stroke-width:2;stroke-miterlimit:10;" x1="297.076" y1="147.209" x2="297.076" y2="188.687"/>
							</g>
							<polygon style="fill:#A84E11;" points="352.534,196.355 297.076,224.202 239.316,224.202 301.696,190.859 							"/>
						</g>
						<g>
							<polygon style="fill:#EA9633;" points="428.686,158.571 374.868,152.753 374.868,100.099 428.686,105.917 							"/>
							<polygon style="fill:#CA791E;" points="308.832,135.396 374.868,100.099 374.868,152.753 308.832,188.05 							"/>
							<polygon style="fill:#CA791E;" points="423.451,152.883 380.104,148.197 380.104,105.787 423.451,110.473 							"/>
							<polygon style="fill:#EA9633;" points="308.832,141.084 374.868,105.787 374.868,147.364 308.832,182.661 							"/>
							<g>
								
									<line style="fill:none;stroke:#CA791E;stroke-width:2;stroke-miterlimit:10;" x1="313.724" y1="138.121" x2="313.724" y2="181.392"/>
								
									<line style="fill:none;stroke:#CA791E;stroke-width:2;stroke-miterlimit:10;" x1="319.974" y1="134.514" x2="319.974" y2="177.786"/>
								
									<line style="fill:none;stroke:#CA791E;stroke-width:2;stroke-miterlimit:10;" x1="326.224" y1="130.907" x2="326.224" y2="174.179"/>
								
									<line style="fill:none;stroke:#CA791E;stroke-width:2;stroke-miterlimit:10;" x1="332.475" y1="127.301" x2="332.475" y2="170.572"/>
								
									<line style="fill:none;stroke:#CA791E;stroke-width:2;stroke-miterlimit:10;" x1="338.725" y1="124.224" x2="338.725" y2="167.495"/>
								
									<line style="fill:none;stroke:#CA791E;stroke-width:2;stroke-miterlimit:10;" x1="344.975" y1="120.729" x2="344.975" y2="164"/>
								
									<line style="fill:none;stroke:#CA791E;stroke-width:2;stroke-miterlimit:10;" x1="351.226" y1="117.401" x2="351.226" y2="160.673"/>
								
									<line style="fill:none;stroke:#CA791E;stroke-width:2;stroke-miterlimit:10;" x1="357.476" y1="114.084" x2="357.476" y2="157.356"/>
								
									<line style="fill:none;stroke:#CA791E;stroke-width:2;stroke-miterlimit:10;" x1="363.726" y1="109.964" x2="363.726" y2="153.235"/>
								
									<line style="fill:none;stroke:#CA791E;stroke-width:2;stroke-miterlimit:10;" x1="369.977" y1="107.092" x2="369.977" y2="150.363"/>
							</g>
							<polygon style="fill:#B75F16;" points="428.686,158.571 369.977,188.05 308.832,188.05 374.868,152.753 							"/>
						</g>
					</g>
					<g>
						<g>
							<path style="fill:#374A3A;" d="M442.568,310.697c0,0,24.048-41.601,27.927-124.18c1.95-41.525-8.921-86.535-8.921-86.535
								s-77.188,16.734-177.26,75.469c0,0-2.715,2.737-2.715,7.076s-11.073,9.075-48.872,29.551
								c-37.799,20.476-91.151,65.939-91.151,65.939s1.001,12.555,12.024,32.68H442.568z"/>
							<path style="fill:#BD3E00;" d="M149.171,301.917c1.259,2.733,2.724,5.665,4.43,8.779h288.968
								c0,0,24.048-41.602,27.927-124.18c0.384-8.166,0.266-16.464-0.162-24.531c-18.751,2.33-63.98,11.282-142.577,45.638
								C235.336,248.021,166.857,290.578,149.171,301.917z"/>
							<path style="opacity:0.3;fill:#374A3A;" d="M193.551,298.962c-10.085-2.715-23.238-44.174-23.238-44.174l0,0
								c-16.693,12.967-28.737,23.229-28.737,23.229s1.001,12.555,12.024,32.68h288.968c0,0,9.487-16.424,17.505-49.096
								C268.934,304.722,203.556,301.655,193.551,298.962z"/>
							<g>
								<path style="fill:#EA9633;" d="M361.696,168.538c0,2.892-2.344,5.236-5.236,5.236c-2.892,0-5.236-2.344-5.236-5.236
									c0-2.892,2.344-5.236,5.236-5.236C359.352,163.302,361.696,165.646,361.696,168.538z"/>
								<path style="fill:#EA9633;" d="M390.593,156.749c0,3.213-2.605,5.818-5.818,5.818c-3.213,0-5.818-2.605-5.818-5.818
									c0-3.213,2.605-5.818,5.818-5.818C387.988,150.931,390.593,153.536,390.593,156.749z"/>
								<path style="fill:#EA9633;" d="M423.078,145.113c0,3.535-2.865,6.4-6.4,6.4c-3.535,0-6.4-2.865-6.4-6.4s2.865-6.4,6.4-6.4
									C420.212,138.713,423.078,141.578,423.078,145.113z"/>
							</g>
						</g>
						<g>
							<path id="SVGID_x5F_00000174600078211636404690000008217004920009106083_x5F_" style="fill:none;" d="M208.757,258.644
								c0,0,59.956-39.447,137.616-67.907"/>
							<text>							<textPath  xlink:href="#SVGID_x5F_00000174600078211636404690000008217004920009106083_x5F_" startOffset="1.66%">
<tspan  style="fill:#F8E4CF; font-family:'Poppins-Black'; font-size:25.2938px;">I</tspan><tspan  style="fill:#F8E4CF; font-family:'Poppins-Black'; font-size:26.2306px;">M</tspan><tspan  style="fill:#F8E4CF; font-family:'Poppins-Black'; font-size:27.1674px;">P</tspan><tspan  style="fill:#F8E4CF; font-family:'Poppins-Black'; font-size:28.1042px;">ORT</tspan>							</textPath>
</text>
						</g>
					</g>
				</g>
				
					<line style="fill:none;stroke:#374A3A;stroke-width:2;stroke-miterlimit:10;" x1="20.627" y1="310.697" x2="479.373" y2="310.697"/>
			</g>
			<g>
				<g>
					<g>
						<g>
							<g>
								<rect x="64.97" y="286.075" style="fill:#3B7977;" width="174.673" height="108.016"/>
								<rect x="64.97" y="298.226" style="fill:#184347;" width="174.673" height="83.714"/>
								<g>
									
										<line style="fill:none;stroke:#3B7977;stroke-width:2;stroke-miterlimit:10;" x1="72.564" y1="298.226" x2="72.564" y2="381.94"/>
									
										<line style="fill:none;stroke:#3B7977;stroke-width:2;stroke-miterlimit:10;" x1="83.197" y1="298.226" x2="83.197" y2="381.94"/>
									
										<line style="fill:none;stroke:#3B7977;stroke-width:2;stroke-miterlimit:10;" x1="93.829" y1="298.226" x2="93.829" y2="381.94"/>
									
										<line style="fill:none;stroke:#3B7977;stroke-width:2;stroke-miterlimit:10;" x1="104.461" y1="298.226" x2="104.461" y2="381.94"/>
									
										<line style="fill:none;stroke:#3B7977;stroke-width:2;stroke-miterlimit:10;" x1="115.093" y1="298.226" x2="115.093" y2="381.94"/>
									
										<line style="fill:none;stroke:#3B7977;stroke-width:2;stroke-miterlimit:10;" x1="125.726" y1="298.226" x2="125.726" y2="381.94"/>
									
										<line style="fill:none;stroke:#3B7977;stroke-width:2;stroke-miterlimit:10;" x1="136.358" y1="298.226" x2="136.358" y2="381.94"/>
									
										<line style="fill:none;stroke:#3B7977;stroke-width:2;stroke-miterlimit:10;" x1="146.99" y1="298.226" x2="146.99" y2="381.94"/>
									
										<line style="fill:none;stroke:#3B7977;stroke-width:2;stroke-miterlimit:10;" x1="157.622" y1="298.226" x2="157.622" y2="381.94"/>
									
										<line style="fill:none;stroke:#3B7977;stroke-width:2;stroke-miterlimit:10;" x1="168.255" y1="298.226" x2="168.255" y2="381.94"/>
									
										<line style="fill:none;stroke:#3B7977;stroke-width:2;stroke-miterlimit:10;" x1="178.887" y1="298.226" x2="178.887" y2="381.94"/>
									
										<line style="fill:none;stroke:#3B7977;stroke-width:2;stroke-miterlimit:10;" x1="189.519" y1="298.226" x2="189.519" y2="381.94"/>
									
										<line style="fill:none;stroke:#3B7977;stroke-width:2;stroke-miterlimit:10;" x1="200.151" y1="298.226" x2="200.151" y2="381.94"/>
									
										<line style="fill:none;stroke:#3B7977;stroke-width:2;stroke-miterlimit:10;" x1="210.783" y1="298.226" x2="210.783" y2="381.94"/>
									
										<line style="fill:none;stroke:#3B7977;stroke-width:2;stroke-miterlimit:10;" x1="221.416" y1="298.226" x2="221.416" y2="381.94"/>
									
										<line style="fill:none;stroke:#3B7977;stroke-width:2;stroke-miterlimit:10;" x1="232.048" y1="298.226" x2="232.048" y2="381.94"/>
								</g>
							</g>
							<g>
								
									<text transform="matrix(1 0 0 1 76.223 351.4597)" style="fill:#F8E4CF; font-family:'Poppins-Black'; font-size:37.6381px;">EXPORT</text>
							</g>
						</g>
					</g>
				</g>
				<g>
					<g>
						<rect x="81.691" y="232.758" style="fill:#EA9633;" width="70.673" height="53.317"/>
						<rect x="131.152" y="232.758" style="fill:#CA791E;" width="21.212" height="53.317"/>
						<rect x="100.644" y="232.758" style="fill:#374A3A;" width="10.924" height="12.211"/>
						<rect x="138.559" y="232.758" style="fill:#374A3A;" width="6.398" height="12.211"/>
						<g>
							<polygon style="fill:#374A3A;" points="113.346,277.098 109.843,273.094 106.34,277.098 108.137,277.098 108.137,280.941 
								111.55,280.941 111.55,277.098 							"/>
							<polygon style="fill:#374A3A;" points="105.871,277.098 102.368,273.094 98.866,277.098 100.662,277.098 100.662,280.941 
								104.075,280.941 104.075,277.098 							"/>
						</g>
					</g>
					<g>
						<rect x="152.248" y="232.758" style="fill:#EA9633;" width="70.674" height="53.317"/>
						<rect x="201.709" y="232.758" style="fill:#CA791E;" width="21.212" height="53.317"/>
						<rect x="171.201" y="232.758" style="fill:#374A3A;" width="10.924" height="12.211"/>
						<rect x="209.116" y="232.758" style="fill:#374A3A;" width="6.398" height="12.211"/>
						<g>
							<polygon style="fill:#374A3A;" points="183.903,277.098 180.4,273.094 176.897,277.098 178.693,277.098 178.693,280.941 
								182.106,280.941 182.106,277.098 							"/>
							<polygon style="fill:#374A3A;" points="176.428,277.098 172.925,273.094 169.422,277.098 171.218,277.098 171.218,280.941 
								174.632,280.941 174.632,277.098 							"/>
						</g>
					</g>
				</g>
				<g>
					<rect x="31.663" y="393.267" style="fill:#374A3A;" width="241.285" height="9.045"/>
					<path style="fill:#374A3A;" d="M157.513,196.957c0,2.876-2.331,5.206-5.206,5.206c-2.875,0-5.207-2.331-5.207-5.206
						s2.331-5.206,5.207-5.206C155.182,191.751,157.513,194.081,157.513,196.957z"/>
					<g>
						<polygon style="fill:none;stroke:#374A3A;stroke-miterlimit:10;" points="37.244,396.25 152.306,196.957 267.368,396.25 
													"/>
						<line style="fill:none;stroke:#374A3A;stroke-miterlimit:10;" x1="152.306" y1="196.957" x2="152.306" y2="0"/>
					</g>
				</g>
			</g>
			<g>
				<g>
					<g>
						<path style="fill:#0C2109;" d="M311.907,433.88l-1.973,7.694l-16.768,7.891v2.959h29.59c0,0,0.197-3.945-0.986-8.482
							c-1.184-4.537-1.578-10.061-1.578-10.061H311.907z"/>
						<path style="fill:#3B7977;" d="M322.706,449.859c0.101,1.567,0.051,2.564,0.051,2.564h-29.59v-2.564H322.706z"/>
					</g>
					<g>
						<path style="fill:#0C2109;" d="M380.589,422.301l4.243,6.714l-5.764,17.612l2.153,2.03l20.303-21.526
							c0,0-2.735-2.85-6.848-5.103c-4.113-2.252-8.402-5.755-8.402-5.755L380.589,422.301z"/>
						<path style="fill:#3B7977;" d="M399.622,425.408c1.209,1.002,1.901,1.722,1.901,1.722l-20.303,21.526l-1.866-1.759
							L399.622,425.408z"/>
					</g>
					<g>
						<path style="fill:#184347;" d="M313.741,317.254c0,0-15.285,54.898-15.083,60.393c0.202,5.495,7.095,57.696,7.541,60.214
							c0.445,2.519,16.271,0.229,17.63-1.374c1.36-1.603,2.505-28.848,1.131-38.235c-1.374-9.387-1.048-15.542,0.621-20.134
							c1.669-4.592,8.309-27.029,8.309-27.029s8.013,27.703,11.448,34.114c3.434,6.411,33.415,41.772,35.258,41.669
							c4.121-0.229,11.905-6.64,11.448-10.99c-0.458-4.35-20.835-32.74-23.124-40.066c-2.289-7.326-19.461-64.106-19.461-64.106
							L313.741,317.254z"/>
						<g>
							<path style="fill:none;stroke:#3B7977;stroke-width:0.5;stroke-miterlimit:10;" d="M316.259,333.23
								c0,0,14.882,9.158,15.798,10.532s1.832,7.326,1.832,7.326"/>
							<path style="fill:none;stroke:#3B7977;stroke-width:0.5;stroke-miterlimit:10;" d="M346.447,312.176
								c0,0,17.552,61.121,19.439,65.7c1.887,4.579,25.447,40.971,25.447,40.971"/>
							<path style="fill:none;stroke:#3B7977;stroke-width:0.5;stroke-miterlimit:10;" d="M330.953,342.792
								c0,0-11.246,35.312-11.253,38.746c-0.007,3.434,2.332,55.795,2.332,55.795"/>
							<path style="fill:none;stroke:#3B7977;stroke-width:0.5;stroke-miterlimit:10;" d="M338.672,313.383
								c0,0,5.335,13.665,6.686,14.352c1.351,0.687,5.953,1.301,5.953,1.301"/>
						</g>
					</g>
				</g>
				<g>
					<g>
						<g>
							<path style="fill:#EA9633;" d="M367.623,358.95c0.389,0.604,0.214,1.41-0.39,1.799l-24.381,15.69
								c-0.604,0.389-1.41,0.214-1.798-0.39l-22.3-34.653c-0.389-0.604-0.214-1.41,0.39-1.798l24.381-15.69
								c0.604-0.389,1.41-0.214,1.799,0.39L367.623,358.95z"/>
							<g>
								
									<rect x="328.973" y="330.428" transform="matrix(0.8409 -0.5411 0.5411 0.8409 -133.7395 240.0736)" style="fill:#F8E4CF;" width="25.016" height="34.183"/>
								<g>
									
										<rect x="341.128" y="331.895" transform="matrix(0.8409 -0.5412 0.5412 0.8409 -125.7777 238.206)" style="fill:#DEC5AB;" width="2.277" height="2.277"/>
									
										<rect x="325.247" y="338.814" transform="matrix(0.8409 -0.5412 0.5412 0.8409 -130.7577 233.9467)" style="fill:#DEC5AB;" width="14.605" height="1.139"/>
									<path style="fill:none;stroke:#BD3E00;stroke-width:0.5;stroke-miterlimit:10;" d="M341.861,333.295l0.67,0.149
										c0,0-0.06-1.606,1.097-3.414"/>
								</g>
								<g>
									
										<rect x="343.886" y="336.181" transform="matrix(0.8409 -0.5412 0.5412 0.8409 -127.6584 240.3805)" style="fill:#DEC5AB;" width="2.277" height="2.277"/>
									
										<rect x="328.005" y="343.101" transform="matrix(0.8409 -0.5411 0.5411 0.8409 -132.6378 236.1184)" style="fill:#DEC5AB;" width="14.605" height="1.139"/>
									<path style="fill:none;stroke:#BD3E00;stroke-width:0.5;stroke-miterlimit:10;" d="M344.619,337.581l0.67,0.149
										c0,0-0.06-1.605,1.097-3.414"/>
								</g>
								<g>
									
										<rect x="346.645" y="340.467" transform="matrix(0.8409 -0.5411 0.5411 0.8409 -129.5332 242.526)" style="fill:#DEC5AB;" width="2.277" height="2.277"/>
									
										<rect x="330.763" y="347.387" transform="matrix(0.8409 -0.5412 0.5412 0.8409 -134.5197 238.2982)" style="fill:#DEC5AB;" width="14.605" height="1.139"/>
									<path style="fill:none;stroke:#BD3E00;stroke-width:0.5;stroke-miterlimit:10;" d="M347.377,341.867l0.67,0.149
										c0,0-0.06-1.606,1.097-3.414"/>
								</g>
								<g>
									
										<rect x="349.403" y="344.753" transform="matrix(0.8409 -0.5412 0.5412 0.8409 -131.4183 244.7221)" style="fill:#DEC5AB;" width="2.277" height="2.277"/>
									
										<rect x="333.521" y="351.673" transform="matrix(0.8409 -0.5412 0.5412 0.8409 -136.3997 240.4699)" style="fill:#DEC5AB;" width="14.605" height="1.139"/>
									<path style="fill:none;stroke:#BD3E00;stroke-width:0.5;stroke-miterlimit:10;" d="M350.135,346.153l0.67,0.149
										c0,0-0.06-1.606,1.097-3.414"/>
								</g>
								<g>
									
										<rect x="352.161" y="349.039" transform="matrix(0.8409 -0.5411 0.5411 0.8409 -133.2968 246.886)" style="fill:#DEC5AB;" width="2.277" height="2.277"/>
									
										<rect x="336.28" y="355.959" transform="matrix(0.8409 -0.5412 0.5412 0.8409 -138.2804 242.6443)" style="fill:#DEC5AB;" width="14.605" height="1.139"/>
									<path style="fill:none;stroke:#BD3E00;stroke-width:0.5;stroke-miterlimit:10;" d="M352.893,350.439l0.67,0.149
										c0,0-0.06-1.606,1.097-3.414"/>
								</g>
							</g>
							<g>
								<path style="fill:#CA791E;" d="M338.152,325.514l-5.826,3.749c-0.652-1.013-2.002-1.306-3.015-0.654
									c-1.013,0.652-1.306,2.002-0.654,3.015l-5.826,3.749c-0.604,0.389-0.779,1.194-0.39,1.798l0.842,1.308
									c0.389,0.604,1.194,0.779,1.799,0.39l15.32-9.859c0.604-0.389,0.779-1.194,0.39-1.798l-0.842-1.308
									C339.562,325.3,338.757,325.125,338.152,325.514z"/>
								<path style="fill:#602116;" d="M331.039,330.091c0.194,0.302,0.107,0.705-0.195,0.899c-0.302,0.194-0.705,0.107-0.899-0.195
									c-0.195-0.302-0.107-0.705,0.195-0.899C330.442,329.702,330.845,329.789,331.039,330.091z"/>
							</g>
						</g>
						<path style="fill:#D06F32;" d="M351.927,331.346c-0.81,1.339-7.126,4.041-7.708,4.892c-0.582,0.85-3.646,5.284-3.768,6.288
							c-0.122,1.003,4.841-3.979,5.484-3.821c0.643,0.158-3.518,5.775-3.337,7.102c0.181,1.328,5.333-5.527,5.977-5.369
							c0.643,0.158-2.72,6.424-2.082,7.151c0.638,0.727,5.115-7.002,5.399-6.656c0.284,0.346-2.433,4.813-1.592,5.064
							c0.841,0.251,6.668-9.753,7.089-10.518c1.003-1.82,1.083-2.42,1.443-3.741c0.36-1.32,10.904-23.512,10.933-27.6
							c0.029-4.088-10.293-29.622-13.334-34.459c-3.041-4.837-12.085-2.203-11.724,2.321c0.361,4.524,12.204,27.41,12.684,30.771
							C357.871,306.132,351.927,331.346,351.927,331.346z"/>
					</g>
					<path style="fill:#D06F32;" d="M312.678,266.495c-4.411,1.069-21.299,20.47-24.542,21.473
						c-2.912,0.901-21.863,1.456-26.151,1.152c-0.641-2.64-2.563-4.237-3.653-5.241c-2.563-2.36-1.526-6.913-3.057-5.535
						c-0.85,0.765-0.756,2.479-0.504,3.854c-1.027,0.146-1.948-0.909-2.252-1.098c-1.621-1.005-5.298-3.639-6.308-3.602
						c-1.01,0.038,4.691,4.154,4.637,4.814c-0.055,0.66-6.256-2.565-7.539-2.178c-1.283,0.387,6.298,4.396,6.243,5.057
						c-0.055,0.66-6.772-1.674-7.389-0.93c-0.618,0.744,7.72,3.948,7.423,4.284c-0.297,0.336-5.136-1.645-5.251-0.775
						s10.681,5.049,11.503,5.345c1.955,0.703,2.561,0.688,3.921,0.836c1.361,0.148,24.935,7.984,28.977,7.37
						c4.042-0.615,23.784-19.85,28.082-23.614C321.115,273.942,317.089,265.426,312.678,266.495z"/>
					<g>
						<path style="fill:#F8E4CF;" d="M326.303,260.399c0,0-11.189,0.482-15.31,3.688c-4.121,3.205-19.116,15.606-18.602,17.419
							c0.514,1.813,5.231,9.597,11.573,11.429c0,0,2.335-0.115,5.377-2.519c1.116-0.883,0.278,18.774,1.881,26.558
							c1.603,7.784,18.545,5.724,29.077,2.747c10.532-2.976,11.676-4.808,11.447-7.555c-0.229-2.747,0.025-15.111,0.025-15.111
							s0.967,1.832,3.18,2.06c2.214,0.229,9.387-5.495,11.562-7.326c2.175-1.832-8.586-22.208-11.562-25.414
							c-2.976-3.205-18.168-7.676-18.168-7.676L326.303,260.399z"/>
						<g>
							<path style="fill:none;stroke:#DEC5AB;stroke-width:0.5;stroke-miterlimit:10;" d="M309.341,290.416
								c-1.553-8.91,0.651-17.4,2.025-20.148c1.374-2.747,1.459-7.256,1.459-7.256"/>
							<path style="fill:none;stroke:#DEC5AB;stroke-width:0.5;stroke-miterlimit:10;" d="M354.952,266.376
								c-4.217-2.609-10.99,1.824-11.219,8.124c-0.229,6.3,4.629,16.145,8.039,22.555"/>
							<path style="fill:none;stroke:#DEC5AB;stroke-width:0.5;stroke-miterlimit:10;" d="M328.873,259.983
								c0,0-10.151,9.599-7.942,62.345"/>
							<path style="fill:none;stroke:#DEC5AB;stroke-width:0.5;stroke-miterlimit:10;" d="M349.339,292.309
								c0,0-0.347,12.632,0,24.029"/>
						</g>
					</g>
				</g>
				<g>
					<path style="fill:#D06F32;" d="M336.784,258.7c0,0,2.529-26.873,2.795-30.03c0.267-3.157-13.753-6.6-18.185-4.95
						c-4.432,1.65-6.5,7.915-6.903,13.429s0.54,11.328,1.968,12.134c1.428,0.806,10.515,2.446,10.515,2.446l-0.67,8.67
						C326.303,260.399,326.333,267.75,336.784,258.7z"/>
					<path style="fill:#0C2109;" d="M337.6,250.008c0,0-1.937-0.553-2.497-1.673c-0.56-1.12-1.776-5.42-1.776-5.42
						s3.776-3.38,2.865-6.864c-0.911-3.484-5.047-1.257-5.047-1.257s-4.302-0.167-5.15-5.392c0,0-8.436,0.54-10.18-4.88
						c-1.744-5.42,1.169-4.527,7.586-3.348c6.418,1.178,15.505,3.885,17.409,4.96C342.715,227.21,339.089,250.679,337.6,250.008z"/>
					<g>
						<path style="fill:#184347;" d="M324.702,221.427l14.94,22.289c0,0,7.701-6.187,7.341-8.896s-8.762-15.239-10.895-16.568
							C333.956,216.925,324.702,221.427,324.702,221.427z"/>
						<path style="fill:#3B7977;" d="M331.06,230.912c0,0-3.5-14.562-7.578-17.014c-4.078-2.452-2.044,6.912-2.044,6.912
							l3.265,0.618L331.06,230.912z"/>
					</g>
				</g>
			</g>
		</g>
	</g>
</g>
</svg>
