<?xml version="1.0" encoding="utf-8"?>
<!-- Generator: Adobe Illustrator 27.5.0, SVG Export Plug-In . SVG Version: 6.00 Build 0)  -->
<svg version="1.1" xmlns="http://www.w3.org/2000/svg" xmlns:xlink="http://www.w3.org/1999/xlink" x="0px" y="0px"
	 viewBox="0 0 3710 3710" style="enable-background:new 0 0 3710 3710;" xml:space="preserve">
<g id="Background">
	<g>
		<g>
			<rect style="fill:#FFFFFF;" width="3710" height="3710"/>
		</g>
	</g>
</g>
<g id="Illustration">
	<g>
		<linearGradient id="SVGID_1_" gradientUnits="userSpaceOnUse" x1="3678.6277" y1="3568.3264" x2="1462.3229" y2="1580.1687">
			<stop  offset="0" style="stop-color:#DAE3FE"/>
			<stop  offset="1" style="stop-color:#E9EFFD"/>
		</linearGradient>
		<path style="fill:url(#SVGID_1_);" d="M2940.088,2880.133c-74.686,76.983-90.347,88.073-141.512,122.237
			c-498.996,333.184-1221.017,252.652-1397.373,219.828c-284.528-52.957-424.26-71.651-630.618-258.088
			c-468.909-423.641-446.102-1307.387-87.798-1854.829c42.484-64.911,393.992-568.56,965.634-643.286
			c13.982-1.828,676.229-89.278,1123.063,285.08c63.962,53.587,166.896,150.245,262.348,297.664
			C3382.85,1587.771,3383.956,2422.611,2940.088,2880.133z"/>
		<g>
			<path style="fill:#BDD0FB;" d="M631.284,471.263c-3.73-11.511,9.693-20.971,19.393-13.736
				c98.499,73.46,340.784,299.428,337.211,742.861c-4.483,556.353,132.588,743.594,288.76,849.559
				c0,0-201.937-35.225-347.976-224.431C570.115,1360.972,697.598,675.939,631.284,471.263z"/>
			<path style="fill:#FFFFFF;" d="M718.497,634.961c18.078,59.824,34.967,119.973,49.632,180.653
				c14.981,60.592,28.119,121.612,39.336,182.953c10.981,61.379,20.808,122.954,28.006,184.855
				c7.475,61.866,12.285,123.984,16.896,186.368c4.957,62.322,9.596,125.134,20.679,187.662
				c11.003,62.407,29.632,124.503,59.056,181.355c7.35,14.167,14.987,28.255,23.378,41.753
				c8.144,13.659,16.895,26.961,25.881,40.101c18.107,26.196,37.983,51.235,59.626,74.686
				c43.413,46.798,93.919,86.948,148.243,119.612c5.718,3.438,13.139,1.589,16.578-4.129c3.376-5.614,1.654-12.872-3.823-16.388
				l-0.039-0.025c-12.988-8.319-25.865-16.776-38.321-25.777c-6.301-4.402-12.393-9.075-18.571-13.631
				c-5.997-4.784-12.183-9.337-18.027-14.302c-23.702-19.457-46.011-40.556-66.647-63.199
				c-41.452-45.034-76.388-96.496-104.592-150.758c-13.8-27.298-25.564-55.566-35.112-84.641
				c-9.527-29.085-16.834-58.947-22.443-89.249c-11.227-60.637-16.332-122.769-21.736-185.052
				c-5.486-62.29-11.427-124.847-19.933-187.062c-4.168-31.115-8.896-62.152-14.176-93.088c-2.551-15.483-5.402-30.913-8.224-46.346
				c-2.97-15.406-6.026-30.794-9.205-46.153c-12.834-61.417-27.535-122.414-44.142-182.86
				c-16.897-60.366-35.391-120.264-56.161-179.349c-0.594-1.689-2.444-2.577-4.132-1.983
				C718.884,631.543,718.002,633.313,718.497,634.961z"/>
		</g>
		<g>
			<g>
				<path style="fill:#BDD0FB;" d="M1012.614,2261.405c-3.867,21.958-28.903,32.83-47.745,20.911
					c-103.969-65.765-381.11-278.288-431.284-700.005c-42.369-356.121-99.186-545.198-130.926-629.245
					c-6.711-17.772,13.166-33.783,29.121-23.47C607.806,1043.374,1152.749,1465.751,1012.614,2261.405z"/>
				<path style="fill:#FFFFFF;" d="M982.907,2266.78c-0.401,0.38-0.843,0.726-1.328,1.034c-4.057,2.578-9.437,1.38-12.015-2.677
					c-2.923-4.6-293.239-465.601-374.518-958.102c-0.781-4.74,2.428-9.22,7.172-10.007c4.744-0.781,9.223,2.428,10.008,7.173
					c80.687,488.917,369.128,947.03,372.031,951.599C986.529,2259.372,985.87,2263.971,982.907,2266.78z"/>
			</g>
		</g>
		<rect x="3308.681" y="2388.743" style="fill:#FFFFFF;" width="0" height="0"/>
		<g>
			
				<linearGradient id="SVGID_00000025403685504618765540000017497114405300174988_" gradientUnits="userSpaceOnUse" x1="-851.1671" y1="2669.1965" x2="-274.1411" y2="938.1135" gradientTransform="matrix(-1 0 0 1 1155.7772 0)">
				<stop  offset="0" style="stop-color:#09005D"/>
				<stop  offset="1" style="stop-color:#1A0F91"/>
			</linearGradient>
			<path style="fill:url(#SVGID_00000025403685504618765540000017497114405300174988_);" d="M611.158,3014.421
				c0,24.825,20.331,45.137,45.181,45.137h2443.18c24.849,0,45.181-20.312,45.181-45.137l20.33-1404.028
				c0-24.825-29.249-73.291-82.852-69.649l-2387.745-61.782c-31.179-0.807-61.325,11.194-83.404,33.201
				c-22.079,22.007-34.16,52.096-33.423,83.246L611.158,3014.421z"/>
			
				<linearGradient id="SVGID_00000080902003456799289990000006820713945424329352_" gradientUnits="userSpaceOnUse" x1="3923.1079" y1="859.9969" x2="-128.4884" y2="3642.417">
				<stop  offset="0" style="stop-color:#FF928E"/>
				<stop  offset="1" style="stop-color:#FE7062"/>
			</linearGradient>
			<path style="fill:url(#SVGID_00000080902003456799289990000006820713945424329352_);" d="M655.763,2971.118
				c0,23.508,19.235,42.744,42.744,42.744H3040.6c23.509,0,42.744-19.235,42.744-42.744l19.184-1274.589
				c-2.26-76.702-69.505-104.269-110.269-102.641l-2288.436-61.395c-21.904-0.588-43.083,7.852-58.597,23.326
				c-15.514,15.474-24.046,36.652-23.497,58.557L655.763,2971.118z"/>
			<g>
				<path style="opacity:0.67;fill:#FFFFFF;" d="M3058.035,2365.599c-0.031,0-0.063,0-0.094,0c-3.461-0.05-6.224-2.895-6.171-6.359
					l1.516-103.367c0.05-3.427,2.845-6.171,6.259-6.171c0.031,0,0.063,0,0.094,0c3.461,0.05,6.224,2.895,6.171,6.359l-1.516,103.367
					C3064.244,2362.854,3061.449,2365.599,3058.035,2365.599z"/>
				<path style="opacity:0.67;fill:#FFFFFF;" d="M3061.755,2112.296c-0.031,0-0.063,0-0.094,0c-3.461-0.05-6.224-2.901-6.171-6.359
					l5.812-395.898c-0.109-23.516-7.247-42.292-21.218-55.679c-26.079-24.985-67.483-23.71-69.228-23.628l-731.435-19.614
					c-3.458-0.088-6.187-2.97-6.093-6.428c0.091-3.458,2.748-6.403,6.431-6.09l731,19.614c4.549-0.269,48.632-1.032,77.991,27.099
					c16.516,15.825,24.954,37.628,25.079,64.789l-5.815,396.023C3067.964,2109.551,3065.169,2112.296,3061.755,2112.296z"/>
			</g>
			
				<linearGradient id="SVGID_00000067938930093862049780000005351070030738478223_" gradientUnits="userSpaceOnUse" x1="397.8097" y1="2848.0303" x2="-2172.7783" y2="3473.3081" gradientTransform="matrix(-1 0 0 1 1155.7772 0)">
				<stop  offset="0" style="stop-color:#09005D"/>
				<stop  offset="1" style="stop-color:#1A0F91"/>
			</linearGradient>
			<path style="fill:url(#SVGID_00000067938930093862049780000005351070030738478223_);" d="M418.61,3176.11h2869.104
				c3.11,0,5.654-2.544,5.654-5.654v-112.055c0-3.11-2.544-5.654-5.654-5.654H418.61c-3.109,0-5.654,2.544-5.654,5.654v112.055
				C412.956,3173.566,415.5,3176.11,418.61,3176.11z"/>
		</g>
		<g>
			<path style="fill:#91B3FA;" d="M2407.667,877.791l-1449.714-8.876c-47.644-0.292-85.749,39.504-83.389,87.091l99.736,2059.698
				h1613.261l89.574-1840.229L2407.667,877.791z"/>
			<path style="fill:#BDD0FB;" d="M2467.95,1166.651c-47.224-1.662-83.53-42.363-79.808-89.469l15.541-196.678l273.739,293.762
				L2467.95,1166.651z"/>
			<g>
				<g>
					<path style="opacity:0.78;fill:#FFFFFF;" d="M1639.446,1270.948c130.139-0.203,629.739-1.796,755.897-2.203
						c15.913-0.051,28.543,15.135,27.91,33.521l0,0c-0.602,17.5-13.068,31.455-28.216,31.584l-755.555,6.437
						c-14.554,0.124-26.681-12.589-27.977-29.328l-0.328-4.235C1609.694,1287.584,1622.804,1270.974,1639.446,1270.948z"/>
				</g>
				<g>
					<path style="opacity:0.78;fill:#FFFFFF;" d="M1633.512,1415.421c130.139-0.203,629.739-1.796,755.896-2.203
						c15.913-0.051,28.543,15.135,27.91,33.521l0,0c-0.602,17.501-13.068,31.455-28.216,31.584l-755.555,6.437
						c-14.554,0.124-26.681-12.589-27.978-29.328l-0.328-4.235C1603.76,1432.057,1616.871,1415.447,1633.512,1415.421z"/>
				</g>
				<g>
					<path style="opacity:0.78;fill:#FFFFFF;" d="M1182.209,1621.313c200.989,0.142,972.555-0.133,1167.388-0.205
						c24.575-0.009,44.524,15.217,44.083,33.608l0,0c-0.42,17.506-19.267,31.432-42.658,31.522l-1166.738,4.443
						c-22.474,0.086-41.575-12.664-44.065-29.413l-0.63-4.237C1136.744,1637.877,1156.508,1621.295,1182.209,1621.313z"/>
				</g>
				<g>
					<path style="opacity:0.78;fill:#FFFFFF;" d="M1172.923,1772.938c156.449-0.679,757.037-4.102,908.695-4.969
						c19.13-0.109,34.552,15.033,34.083,33.423l0,0c-0.448,17.505-15.214,31.507-33.422,31.691l-908.218,9.203
						c-17.494,0.177-32.275-12.493-34.097-29.229l-0.461-4.234C1137.418,1789.686,1152.918,1773.025,1172.923,1772.938z"/>
				</g>
				<g>
					<path style="opacity:0.78;fill:#FFFFFF;" d="M1180.233,1971.467c200.989,0.141,972.555-0.133,1167.388-0.206
						c24.576-0.009,44.525,15.217,44.083,33.608l0,0c-0.42,17.506-19.267,31.433-42.658,31.522l-1166.738,4.443
						c-22.474,0.086-41.574-12.664-44.065-29.413l-0.63-4.237C1134.767,1988.03,1154.532,1971.448,1180.233,1971.467z"/>
				</g>
				<g>
					<path style="opacity:0.78;fill:#FFFFFF;" d="M1162.746,2125.616c157.188,0.286,760.617,0.57,912.994,0.637
						c19.22,0.008,34.626,15.246,34.046,33.633l0,0c-0.553,17.502-15.471,31.413-33.767,31.485l-912.539,3.599
						c-17.577,0.069-32.352-12.691-34.085-29.439l-0.438-4.237C1126.976,2142.144,1142.646,2125.58,1162.746,2125.616z"/>
				</g>
				<g>
					<path style="opacity:0.78;fill:#FFFFFF;" d="M1170.324,2328.764c200.989,0.142,972.555-0.133,1167.388-0.205
						c24.575-0.009,44.524,15.217,44.083,33.607l0,0c-0.42,17.506-19.267,31.433-42.658,31.522l-1166.738,4.443
						c-22.474,0.085-41.575-12.664-44.065-29.413l-0.63-4.237C1124.858,2345.329,1144.623,2328.746,1170.324,2328.764z"/>
				</g>
				<g>
					<path style="opacity:0.78;fill:#FFFFFF;" d="M1158.186,2481.092c157.188,0.287,760.617,0.57,912.994,0.638
						c19.22,0.009,34.626,15.246,34.045,33.633l0,0c-0.553,17.502-15.471,31.413-33.766,31.485l-912.539,3.6
						c-17.578,0.069-32.353-12.692-34.085-29.439l-0.438-4.237C1122.415,2497.62,1138.085,2481.055,1158.186,2481.092z"/>
				</g>
				<path style="opacity:0.78;fill:#FFFFFF;" d="M1182.209,2681.912c200.989,0.142,972.555-0.133,1167.388-0.205
					c24.575-0.009,44.524,15.217,44.083,33.608l0,0c-0.42,17.506-19.267,31.433-42.658,31.522l-1166.738,4.443
					c-22.474,0.085-41.575-12.664-44.065-29.413l-0.63-4.237C1136.744,2698.476,1156.508,2681.894,1182.209,2681.912z"/>
				<path style="opacity:0.78;fill:#FFFFFF;" d="M1170.839,2850.739c155.203,0.009,751.01-0.777,901.462-0.978
					c18.978-0.026,34.204,15.184,33.649,33.572l0,0c-0.529,17.503-15.245,31.439-33.309,31.544l-901.009,5.215
					c-17.355,0.1-31.956-12.634-33.684-29.379l-0.437-4.236C1135.537,2867.33,1150.993,2850.738,1170.839,2850.739z"/>
			</g>
			<g>
				<path style="fill:#FFFFFF;" d="M1611.938,989.13v216.851l-11.225-0.048c-12.32-83.113-31.87-140.374-58.701-171.774
					c-22.061-26.3-54.658-39.737-97.9-40.277c-10.838-0.135-16.796,0.305-17.878,1.309c-2.172,1.518-3.253,8.176-3.253,19.962
					v415.254c0,14.864,1.081,24.343,3.253,28.427c1.081,2.054,4.878,4.21,11.38,6.471c6.498,2.272,18.94,4.122,37.328,5.54
					c18.343,1.417,43.129,2.027,74.321,1.833v7.627l-355.289,2.319v-7.734c31.434-0.196,56.461-1.123,75.146-2.782
					c18.639-1.655,31.243-3.669,37.82-6.03c6.564-2.349,10.792-5.212,12.711-8.565c1.91-3.354,2.874-12.245,2.874-26.649v-416.112
					c0-13.37-1.64-20.605-4.92-21.681c-1.64-0.526-7.383-0.862-17.242-0.985c-42.772-0.534-75.508,11.984-98.102,37.576
					c-27.626,31.804-48.382,89.393-62.217,172.769l-11.655-0.05v-219.42L1611.938,989.13z"/>
			</g>
		</g>
		<g>
			
				<linearGradient id="SVGID_00000098931133377684197350000012807426977132573083_" gradientUnits="userSpaceOnUse" x1="2490.4253" y1="1039.4236" x2="2103.0095" y2="1602.938">
				<stop  offset="0" style="stop-color:#4F52FF"/>
				<stop  offset="1" style="stop-color:#4042E2"/>
			</linearGradient>
			<path style="fill:url(#SVGID_00000098931133377684197350000012807426977132573083_);" d="M2159.452,1179.811
				c0,0,232.965,283.728,318.668,215.359c85.704-68.369-145.678-441.05-145.678-441.05L2159.452,1179.811z"/>
			
				<linearGradient id="SVGID_00000112596816511957727850000005564631111784872875_" gradientUnits="userSpaceOnUse" x1="1673.1229" y1="3673.2676" x2="2028.7719" y2="3052.6265">
				<stop  offset="0" style="stop-color:#09005D"/>
				<stop  offset="1" style="stop-color:#1A0F91"/>
			</linearGradient>
			<path style="fill:url(#SVGID_00000112596816511957727850000005564631111784872875_);" d="M2168.987,3022.063
				c0.021-1.391-0.072-2.8-0.429-4.219c-21.039-83.413-125.464-135.367-125.464-135.367l-41.38,3.243
				c-23.792,73.519-20.734,118.607-16.914,138.691c0.106,0.563,0.277,1.098,0.426,1.643
				C2019.361,3029.104,2089.619,3031.096,2168.987,3022.063z"/>
			
				<linearGradient id="SVGID_00000165935707077267196510000006052400102124089003_" gradientUnits="userSpaceOnUse" x1="2034.1349" y1="2742.8828" x2="1998.4523" y2="3054.2957">
				<stop  offset="0" style="stop-color:#FEBBBA"/>
				<stop  offset="1" style="stop-color:#FF928E"/>
			</linearGradient>
			<path style="fill:url(#SVGID_00000165935707077267196510000006052400102124089003_);" d="M1985.076,2824.087l17.526,84.368
				c1.285,6.182,6.035,10.812,11.788,11.352c7.043,0.661,17.069,1.049,27.152-0.432c9.041-1.328,15.338-10.516,13.734-20.376
				l-12.182-74.911H1985.076z"/>
			
				<linearGradient id="SVGID_00000051381537344311351160000014433778352609414300_" gradientUnits="userSpaceOnUse" x1="1921.2498" y1="3815.4529" x2="2276.8987" y2="3194.812">
				<stop  offset="0" style="stop-color:#09005D"/>
				<stop  offset="1" style="stop-color:#1A0F91"/>
			</linearGradient>
			<path style="fill:url(#SVGID_00000051381537344311351160000014433778352609414300_);" d="M2535.536,3018.385
				c-0.303-0.639-0.563-1.29-0.994-1.892c-22.16-30.963-78.601-92.621-190.129-119.364l-53.503-1.688
				c0,0-23.823,41.408-24.274,118.111c12.22,4.995,35.858,10.377,81.559,11.657
				C2418.841,3027.184,2502.635,3021.103,2535.536,3018.385z"/>
			
				<linearGradient id="SVGID_00000064328804312347468460000013153030753294547116_" gradientUnits="userSpaceOnUse" x1="2324.7947" y1="2776.1877" x2="2289.1123" y2="3087.5996">
				<stop  offset="0" style="stop-color:#FEBBBA"/>
				<stop  offset="1" style="stop-color:#FF928E"/>
			</linearGradient>
			<path style="fill:url(#SVGID_00000064328804312347468460000013153030753294547116_);" d="M2280.989,2814.355
				c0.594,3.988,7.928,64.601,10.767,88.103c0.674,5.585,4.719,9.906,9.82,10.515c9.11,1.088,23.853,2.079,36.75-0.565
				c6.958-1.427,11.995-8.11,11.995-15.883v-95.146L2280.989,2814.355z"/>
			
				<linearGradient id="SVGID_00000152221710843559410790000014640902643727098781_" gradientUnits="userSpaceOnUse" x1="2392.8472" y1="1904.444" x2="1251.5929" y2="3675.3579">
				<stop  offset="0" style="stop-color:#09005D"/>
				<stop  offset="1" style="stop-color:#1A0F91"/>
			</linearGradient>
			<path style="fill:url(#SVGID_00000152221710843559410790000014640902643727098781_);" d="M2238.065,1708.195
				c0,0,129.045,490.419,126.712,1107.563c-0.042,11.252-7.943,20.962-18.953,23.281c-16.225,3.417-40.075,7.475-59.82,6.921
				c-10.541-0.296-19.352-8.112-21.124-18.507c-18.094-106.11-121.933-703.886-181.096-800.933c0,0-38.924,532.405-26.483,808.621
				c0.31,6.868-4.719,12.826-11.548,13.615c-10.36,1.197-26.933,2.106-48.026-0.134c-8.007-0.85-14.466-6.903-15.61-14.873
				c-12.888-89.805-87.071-624.354-83.917-1009.424c0.178-21.714,57.426-116.133,57.426-116.133H2238.065z"/>
			
				<linearGradient id="SVGID_00000017507515797971702460000004609293142434487967_" gradientUnits="userSpaceOnUse" x1="2182.9731" y1="983.0924" x2="1177.3956" y2="3189.7737">
				<stop  offset="0" style="stop-color:#4F52FF"/>
				<stop  offset="1" style="stop-color:#4042E2"/>
			</linearGradient>
			<path style="fill:url(#SVGID_00000017507515797971702460000004609293142434487967_);" d="M2326.947,956.526
				c-177.594-25.683-372.676-2.117-467.357,9.81c-30.657,3.862-58.695,18.977-78.899,42.356
				c-80.117,92.716-255.923,346.556-48.993,602.338c26.481-14.7,64.11-38.271,89.667-65.55
				c-22.893-64.536-24.769-147.006,23.209-248.138c1.64,8.015,3.667,15.952,6.131,23.761
				c66.128,209.499,69.656,383.834,69.508,424.013c-0.022,5.458,3.255,10.37,8.321,12.398
				c87.031,34.877,254.564,14.12,310.802,5.739c10.311-1.537,17.249-11.136,15.823-21.465
				c-19.783-143.323,47.385-352.91,100.798-490.48C2377.066,1196.943,2338,971.766,2326.947,956.526z"/>
			
				<linearGradient id="SVGID_00000088126905669286880590000000064286772762271408_" gradientUnits="userSpaceOnUse" x1="1750.42" y1="919.1909" x2="1889.4996" y2="1242.5509" gradientTransform="matrix(0.9957 0.0924 -0.0924 0.9957 355.6342 -417.7972)">
				<stop  offset="0" style="stop-color:#FEBBBA"/>
				<stop  offset="1" style="stop-color:#FF928E"/>
			</linearGradient>
			<path style="fill:url(#SVGID_00000088126905669286880590000000064286772762271408_);" d="M2043.885,748.202l-24.519,202.685
				c-1.112,9.196,4.544,17.889,13.435,20.488c26.614,7.781,83.586,19.567,135.647-1.859c9.879-4.066,15.338-14.754,13.069-25.194
				l-30.999-142.658L2043.885,748.202z"/>
			<g>
				
					<linearGradient id="SVGID_00000060750910986730880960000011827436541033678513_" gradientUnits="userSpaceOnUse" x1="-162.3973" y1="173.6445" x2="-404.0985" y2="493.3954" gradientTransform="matrix(0.8771 -0.4803 0.4803 0.8771 2220.958 397.849)">
					<stop  offset="0" style="stop-color:#FEBBBA"/>
					<stop  offset="1" style="stop-color:#FF928E"/>
				</linearGradient>
				<path style="fill:url(#SVGID_00000060750910986730880960000011827436541033678513_);" d="M2202.853,604.145
					c1.531,2.795,34.345,210.908,34.345,210.908l-119.228,16.211l-60.406-192.628
					C2057.564,638.637,2177.231,557.354,2202.853,604.145z"/>
				
					<linearGradient id="SVGID_00000127734400038063963230000007523846690520711053_" gradientUnits="userSpaceOnUse" x1="-346.9875" y1="250.4325" x2="-58.2713" y2="250.4325" gradientTransform="matrix(0.8771 -0.4803 0.4803 0.8771 2220.958 397.849)">
					<stop  offset="0" style="stop-color:#09005D"/>
					<stop  offset="1" style="stop-color:#1A0F91"/>
				</linearGradient>
				<path style="fill:url(#SVGID_00000127734400038063963230000007523846690520711053_);" d="M2101.746,657.804
					c-3.387,4.157-4.662,9.612-3.462,14.837l23.513,102.391c0.357,1.554,0.903,3.031,1.676,4.425
					c4.264,7.684,19.806,31.058,43.326,13.775c20.046-14.731,38.672-27.993,54.883-30.687c9.467-1.573,18.337,5.03,19.797,14.516
					c3.006,19.537,8.275,59.083,8.022,94.874c-0.063,8.971-7.101,16.334-16.049,16.965c-23.615,1.663-69.827,3.531-108.063-3.326
					c-6.281-1.126-11.406-5.599-13.389-11.664c-8.724-26.691-33.484-101.403-43.718-121.417
					c-9.509-18.595-37.195-21.76-49.99-22.206c-4.857-0.169-9.386-2.323-12.569-5.996c-9.545-11.013-24.467-35.562,4.295-59.542
					c7.152-5.962,7.997-16.728,2.185-24.001c-10.417-13.032-19.474-34.078,2.853-56.122c22.603-22.315,48.158-16.663,64.358-9.11
					c7.168,3.342,16.02,1.893,21.148-4.129c2.28-2.678,5.656-4.495,10.655-3.921c9.426,1.084,17.862-5.114,19.008-14.534
					c1.965-16.15,10.624-35.144,39.202-40.583c52.414-9.976,78.396,42.526,77.357,79.371c-1.039,36.845-58.48,44.43-91.039,38.22
					C2131.827,625.381,2111.076,646.35,2101.746,657.804z"/>
				
					<linearGradient id="SVGID_00000075851124337604682130000009357810565094599577_" gradientUnits="userSpaceOnUse" x1="2209.157" y1="6125.3706" x2="2348.2268" y2="6448.7085" gradientTransform="matrix(0.8771 -0.4803 0.4803 0.8771 2220.958 397.849)">
					<stop  offset="0" style="stop-color:#FEBBBA"/>
					<stop  offset="1" style="stop-color:#FF928E"/>
				</linearGradient>
				<path style="fill:url(#SVGID_00000075851124337604682130000009357810565094599577_);" d="M2077.345,790.234
					c0,0-0.945-64.279-26.942-70.39c-25.997-6.112-54.117,12.617-31.978,51.163C2045.964,818.953,2077.345,790.234,2077.345,790.234
					z"/>
			</g>
			
				<linearGradient id="SVGID_00000087402255061863449850000002480356986705452963_" gradientUnits="userSpaceOnUse" x1="2637.845" y1="530.1711" x2="1375.6438" y2="1534.3547">
				<stop  offset="0" style="stop-color:#4F52FF"/>
				<stop  offset="1" style="stop-color:#4042E2"/>
			</linearGradient>
			<path style="fill:url(#SVGID_00000087402255061863449850000002480356986705452963_);" d="M1835.798,1281.675
				c-35.077-95.998-22.352-211.917-22.219-213.076l9.665,1.105c-0.128,1.138-12.583,114.834,21.697,208.631L1835.798,1281.675z"/>
			
				<linearGradient id="SVGID_00000120529531496081008490000005654225839751111347_" gradientUnits="userSpaceOnUse" x1="2287.7498" y1="1509.0587" x2="2192.0547" y2="1679.3638">
				<stop  offset="0" style="stop-color:#09005D"/>
				<stop  offset="1" style="stop-color:#1A0F91"/>
			</linearGradient>
			<path style="fill:url(#SVGID_00000120529531496081008490000005654225839751111347_);" d="M2079.042,2014.02
				c-2.162,0-4.139-1.452-4.704-3.645c-10.701-41.274-90.835-86.632-91.643-87.085c-2.343-1.314-3.179-4.279-1.862-6.624
				c1.316-2.343,4.267-3.181,6.624-1.863c3.445,1.932,84.562,47.85,96.3,93.13c0.674,2.602-0.889,5.258-3.488,5.93
				C2079.858,2013.969,2079.445,2014.02,2079.042,2014.02z"/>
			
				<linearGradient id="SVGID_00000142866561000020508080000015377846723722607258_" gradientUnits="userSpaceOnUse" x1="1731.6991" y1="1675.1876" x2="2036.4023" y2="1675.1876">
				<stop  offset="0" style="stop-color:#FEBBBA"/>
				<stop  offset="1" style="stop-color:#FF928E"/>
			</linearGradient>
			<path style="fill:url(#SVGID_00000142866561000020508080000015377846723722607258_);" d="M1821.365,1545.481
				c-25.557,27.278-63.187,50.85-89.666,65.549c39.544,48.88,93.054,97.831,163.891,145.742l8.568,19.226
				c7.342,16.475,23.385,27.401,41.401,28.26c99.004,4.717,126.398-16.281,35.262-79.844
				C1980.82,1724.413,1864.264,1666.411,1821.365,1545.481z"/>
			
				<linearGradient id="SVGID_00000062890872924118875240000017438066739804119976_" gradientUnits="userSpaceOnUse" x1="941.6039" y1="3859.5271" x2="1135.0474" y2="3859.5271" gradientTransform="matrix(0.5644 0.8255 -0.8255 0.5644 5099.5723 -1768.4667)">
				<stop  offset="0" style="stop-color:#FEBBBA"/>
				<stop  offset="1" style="stop-color:#FF928E"/>
			</linearGradient>
			<path style="fill:url(#SVGID_00000062890872924118875240000017438066739804119976_);" d="M2549.247,1115.852
				c0,0-124.925,129.865-153.787,176.977c-28.862,47.111,3.265,132.91,68.83,112.992c65.566-19.918,141.892-245.252,141.892-245.252
				L2549.247,1115.852z"/>
			<g>
				
					<linearGradient id="SVGID_00000164506579583991325600000013942403277652986768_" gradientUnits="userSpaceOnUse" x1="2317.4773" y1="1328.7775" x2="2557.3608" y2="1006.9829">
					<stop  offset="0" style="stop-color:#09005D"/>
					<stop  offset="1" style="stop-color:#1A0F91"/>
				</linearGradient>
				<path style="fill:url(#SVGID_00000164506579583991325600000013942403277652986768_);" d="M2340.143,931.41
					c0,0,109.781,289.528,144.465,349.757c40.261,69.915,157.844,25.364,151.992-33.148
					c-5.851-58.511-143.229-300.358-143.229-300.358L2340.143,931.41z"/>
				
					<linearGradient id="SVGID_00000131331174839015499420000010713169588669948043_" gradientUnits="userSpaceOnUse" x1="2428.408" y1="1155.3285" x2="3090.8906" y2="767.1371">
					<stop  offset="0" style="stop-color:#FF928E"/>
					<stop  offset="1" style="stop-color:#FE7062"/>
				</linearGradient>
				<polygon style="fill:url(#SVGID_00000131331174839015499420000010713169588669948043_);" points="2488.477,720.503 
					3170.805,483.93 3163.639,1124.136 2469.83,969.33 				"/>
				
					<linearGradient id="SVGID_00000008148351470836047870000014868945152509938582_" gradientUnits="userSpaceOnUse" x1="3545.3984" y1="650.0775" x2="3100.7129" y2="835.3634">
					<stop  offset="0" style="stop-color:#FEBBBA"/>
					<stop  offset="1" style="stop-color:#FF928E"/>
				</linearGradient>
				
					<ellipse style="fill:url(#SVGID_00000008148351470836047870000014868945152509938582_);" cx="3171.448" cy="805.89" rx="67.036" ry="329.007"/>
				
					<linearGradient id="SVGID_00000120522086902521902060000010151896517045327252_" gradientUnits="userSpaceOnUse" x1="2777.4548" y1="1046.3315" x2="3298.1436" y2="730.1996">
					<stop  offset="0" style="stop-color:#FF928E"/>
					<stop  offset="1" style="stop-color:#FE7062"/>
				</linearGradient>
				<path style="fill:url(#SVGID_00000120522086902521902060000010151896517045327252_);" d="M3176.536,1112.397
					c-6.059-6.162-19.258-29.934-30.573-91.404c-10.937-59.405-16.959-136.456-16.959-216.96c0-80.505,6.022-157.556,16.959-216.961
					c11.316-61.471,24.515-85.242,30.573-91.405c6.059,6.163,19.258,29.934,30.574,91.405
					c10.937,59.405,16.959,136.456,16.959,216.961c0,80.504-6.022,157.556-16.959,216.96
					C3195.794,1082.464,3182.595,1106.235,3176.536,1112.397z"/>
				<g>
					<defs>
						<path id="SVGID_00000183932899562410175530000011436209264499404458_" d="M3176.536,1112.397
							c-6.059-6.162-19.258-29.934-30.573-91.404c-10.937-59.405-16.959-136.456-16.959-216.96
							c0-80.505,6.022-157.556,16.959-216.961c11.316-61.471,24.515-85.242,30.573-91.405c6.059,6.163,19.258,29.934,30.574,91.405
							c10.937,59.405,97.236,136.456,97.236,216.961c0,80.504-86.299,157.556-97.236,216.96
							C3195.794,1082.464,3182.595,1106.235,3176.536,1112.397z"/>
					</defs>
					<clipPath id="SVGID_00000099650669984060843780000013760805827649147557_">
						<use xlink:href="#SVGID_00000183932899562410175530000011436209264499404458_"  style="overflow:visible;"/>
					</clipPath>
					
						<linearGradient id="SVGID_00000098197120074574406150000001013703494022571659_" gradientUnits="userSpaceOnUse" x1="3319.9656" y1="793.1334" x2="2844.0735" y2="820.439">
						<stop  offset="0" style="stop-color:#09005D"/>
						<stop  offset="1" style="stop-color:#1A0F91"/>
					</linearGradient>
					
						<path style="clip-path:url(#SVGID_00000099650669984060843780000013760805827649147557_);fill:url(#SVGID_00000098197120074574406150000001013703494022571659_);" d="
						M3262.458,801.583c0,55.902-30.114,101.219-89.717,101.219s-107.921-45.317-107.921-101.219
						c0-55.902,48.318-101.219,107.921-101.219S3262.458,745.681,3262.458,801.583z"/>
				</g>
				
					<linearGradient id="SVGID_00000000218197267242415230000018405653571935123129_" gradientUnits="userSpaceOnUse" x1="2418.4966" y1="962.213" x2="2400.9436" y2="520.4752">
					<stop  offset="0" style="stop-color:#09005D"/>
					<stop  offset="1" style="stop-color:#1A0F91"/>
				</linearGradient>
				<path style="fill:url(#SVGID_00000000218197267242415230000018405653571935123129_);" d="M2378.428,706.742
					c32.098-3.728,78.125-5.069,127.891,6.328c-16.396,85.649-13.921,174.92,5.042,267.358l-140.366,0
					c-22.379,0-41.462-16.255-44.952-38.361c-6.996-44.309-15.548-118.782-6.429-178.595
					C2324.19,733.454,2348.266,710.244,2378.428,706.742z"/>
				<path style="fill:#91B3FA;" d="M2462.668,773.967h-109.36c-4.254,0-8.161-2.322-10.195-6.059
					c-2.033-3.737-1.86-8.277,0.454-11.849c1.328-2.059,4.084-2.643,6.143-1.313c2.059,1.331,2.646,4.081,1.313,6.143
					c-0.79,1.224-0.335,2.348-0.104,2.774c0.231,0.428,0.928,1.42,2.389,1.42h109.36c1.501,0,2.722-1.221,2.722-2.718v-7.78
					c0-1.501-1.221-2.721-2.722-2.721h-110.172c-2.452,0-4.442-1.99-4.442-4.442s1.99-4.442,4.442-4.442h110.172
					c6.4,0,11.606,5.206,11.606,11.606v7.78C2474.274,768.762,2469.068,773.967,2462.668,773.967z"/>
				<path style="fill:#91B3FA;" d="M2452.915,822.402h-109.359c-4.254,0-8.162-2.319-10.192-6.056
					c-2.033-3.737-1.863-8.277,0.448-11.849c1.333-2.065,4.084-2.652,6.143-1.319c2.062,1.333,2.649,4.084,1.319,6.143
					c-0.792,1.226-0.338,2.351-0.107,2.779c0.231,0.425,0.928,1.417,2.389,1.417h109.359c1.501,0,2.722-1.221,2.722-2.718v-7.78
					c0-1.501-1.22-2.721-2.722-2.721h-110.172c-2.452,0-4.442-1.99-4.442-4.442c0-2.453,1.99-4.442,4.442-4.442h110.172
					c6.401,0,11.606,5.206,11.606,11.606v7.78C2464.522,817.196,2459.316,822.402,2452.915,822.402z"/>
				<path style="opacity:0.67;fill:#FFFFFF;" d="M2587.625,704.806c-1.883,0-3.633-1.206-4.234-3.095
					c-0.743-2.34,0.55-4.836,2.886-5.582l516.786-164.451c2.34-0.746,4.838,0.552,5.582,2.886c0.743,2.34-0.549,4.836-2.886,5.582
					l-516.786,164.452C2588.524,704.739,2588.07,704.806,2587.625,704.806z"/>
				<path style="opacity:0.67;fill:#FFFFFF;" d="M2517.742,733.374c-1.752,0-3.413-1.041-4.115-2.762
					c-0.928-2.27,0.162-4.865,2.432-5.793l26.596-10.871c2.27-0.931,4.867,0.162,5.793,2.432c0.928,2.27-0.162,4.865-2.432,5.793
					l-26.596,10.871C2518.87,733.27,2518.3,733.374,2517.742,733.374z"/>
				<path style="fill:#91B3FA;" d="M2462.668,879.128h-109.36c-4.254,0-8.158-2.322-10.192-6.056
					c-2.033-3.739-1.862-8.28,0.448-11.852c1.333-2.065,4.087-2.649,6.143-1.319c2.062,1.333,2.649,4.084,1.319,6.143
					c-0.795,1.226-0.338,2.354-0.107,2.779c0.231,0.428,0.931,1.42,2.389,1.42h109.36c1.501,0,2.722-1.221,2.722-2.721v-7.78
					c0-1.498-1.221-2.718-2.722-2.718h-110.172c-2.452,0-4.442-1.99-4.442-4.442c0-2.453,1.99-4.443,4.442-4.443h110.172
					c6.4,0,11.606,5.206,11.606,11.603v7.78C2474.274,873.922,2469.068,879.128,2462.668,879.128z"/>
				<path style="fill:#91B3FA;" d="M2472.909,942.089h-109.362c-4.254,0-8.159-2.322-10.192-6.059
					c-2.033-3.737-1.863-8.277,0.448-11.849c1.333-2.065,4.084-2.652,6.143-1.319c2.062,1.333,2.649,4.084,1.319,6.143
					c-0.792,1.226-0.339,2.351-0.107,2.779c0.234,0.428,0.931,1.42,2.389,1.42h109.362c1.498,0,2.719-1.22,2.719-2.718v-7.783
					c0-1.498-1.22-2.719-2.719-2.719h-110.175c-2.453,0-4.442-1.99-4.442-4.442c0-2.452,1.99-4.442,4.442-4.442h110.175
					c6.397,0,11.603,5.206,11.603,11.603v7.783C2484.512,936.883,2479.306,942.089,2472.909,942.089z"/>
				<path style="fill:#91B3FA;" d="M2570.59,1284.411c-5.157,0-10.368-0.558-15.568-1.689
					c-22.744-4.957-41.262-19.953-50.803-41.146l-87.374-194.113c-1.006-2.236-0.009-4.864,2.23-5.874
					c2.233-1.004,4.868-0.009,5.874,2.23l87.374,194.11c8.373,18.599,24.626,31.761,44.591,36.111
					c19.609,4.266,39.457-0.801,54.45-13.917c0.819-0.714,1.634-1.449,2.456-2.198c1.807-1.66,4.615-1.533,6.276,0.278
					c1.657,1.81,1.533,4.621-0.278,6.276c-0.874,0.801-1.741,1.576-2.609,2.334
					C2604.057,1278.32,2587.639,1284.411,2570.59,1284.411z"/>
				<path style="fill:#91B3FA;" d="M2407.981,1021.382c-1.695,0-3.314-0.974-4.055-2.62l-9.746-21.656
					c-1.006-2.236-0.009-4.867,2.23-5.874c2.23-1.006,4.87-0.009,5.874,2.23l9.746,21.656c1.007,2.236,0.009,4.867-2.23,5.874
					C2409.21,1021.258,2408.591,1021.382,2407.981,1021.382z"/>
				<path style="fill:#91B3FA;" d="M3246.477,800.297c-2.308,0-4.26-1.787-4.425-4.127c-1.906-26.879-11.173-46.893-27.536-59.482
					c-28.363-21.812-69.176-14.348-69.59-14.264c-2.412,0.454-4.738-1.119-5.197-3.528c-0.46-2.406,1.114-4.735,3.52-5.197
					c1.828-0.35,45.053-8.335,76.63,15.906c18.498,14.2,28.938,36.386,31.035,65.935c0.173,2.447-1.669,4.572-4.115,4.746
					C3246.691,800.294,3246.584,800.297,3246.477,800.297z"/>
			</g>
			
				<linearGradient id="SVGID_00000014593298348419555400000007999595867177365382_" gradientUnits="userSpaceOnUse" x1="2477.6265" y1="1077.2964" x2="2595.0073" y2="1077.2964">
				<stop  offset="0" style="stop-color:#FEBBBA"/>
				<stop  offset="1" style="stop-color:#FF928E"/>
			</linearGradient>
			<path style="fill:url(#SVGID_00000014593298348419555400000007999595867177365382_);" d="M2501.947,1041.198
				c0,0,35.591-30.213,63.406,0c27.815,30.213,33.315,82.937,27.657,85.513C2587.351,1129.287,2415.365,1086.583,2501.947,1041.198z
				"/>
		</g>
	</g>
</g>
</svg>
